<?xml version="1.0" encoding="utf-8"?>
<!-- Generator: Adobe Illustrator 24.0.0, SVG Export Plug-In . SVG Version: 6.00 Build 0)  -->
<svg version="1.1" id="Layer_1" xmlns="http://www.w3.org/2000/svg" xmlns:xlink="http://www.w3.org/1999/xlink" x="0px" y="0px"
	 viewBox="0 0 595.28 474.15" style="enable-background:new 0 0 595.28 474.15;" xml:space="preserve">
<style type="text/css">
	.st0{fill:#1B2956;}
	.st1{font-family:'Gotham-Book';}
	.st2{font-size:56.4278px;}
</style>
<g>
	<text transform="matrix(1 0 0 1 32.3826 435.5802)" class="st0 st1 st2">S</text>
	<text transform="matrix(1 0 0 1 78.4802 435.5802)" class="st0 st1 st2">U</text>
	<text transform="matrix(1 0 0 1 130.9295 435.5792)" class="st0 st1 st2">N</text>
	<text transform="matrix(1 0 0 1 528.2214 435.5802)" class="st0 st1 st2">E</text>
	<text transform="matrix(1 0 0 1 239.9021 435.5802)" class="st0 st1 st2">I</text>
	<text transform="matrix(1 0 0 1 185.4744 435.5792)" class="st0 st1 st2">N</text>
	<text transform="matrix(1 0 0 1 266.6267 435.5802)" class="st0 st1 st2">N</text>
	<text transform="matrix(1 0 0 1 321.6609 435.5802)" class="st0 st1 st2">G</text>
	<text transform="matrix(1 0 0 1 374.7693 435.5792)" class="st0 st1 st2">D</text>
	<text transform="matrix(1 0 0 1 429.1961 435.5782)" class="st0 st1 st2">A</text>
	<text transform="matrix(1 0 0 1 484.3894 435.5782)" class="st0 st1 st2">L</text>
</g>
<g id="_x34_wrqjh_1_">
	<g>
		<path class="st0" d="M267.35,78.72c2.32-1.34,3.39-0.99,4.67,1.82c2.82,6.21,5.52,8.87,11.78,7.27c1.86-0.48,3.93-0.14,5.9-0.24
			c1.65-0.08,2.9,0.5,3.82,1.9c0.94,1.45,2.19,2.56,3.81,3.24c1.27,0.53,2.53,0.91,3.65-0.26c1.92-2.01,2.97-1.32,3.58,1.07
			c0.15,0.59,0.11,1.32,0.89,1.74c1.07-0.93,0.56-2.12,0.68-3.15c0.13-1.21,0.02-2.47,0.34-3.62c0.31-1.14,1.24-1.96,2.55-1.78
			c1.32,0.19,1.93,1.21,1.88,2.44c-0.05,1.4-0.36,2.78-0.52,4.18c-0.17,1.53,0.34,2.56,2.05,2.73c0.64,0.06,1.49,0.12,1.85,0.53
			c2.65,3.04,4.31,1.3,6.26-0.94c1.85-2.13,3.84-4.12,5.56-6.37c0.66-0.87,1.25-2.09,2.68-1.34c1.47,0.76,0.58,1.83,0.38,2.91
			c-0.58,3.02-1.99,5.56-3.91,7.9c-0.79,0.96-0.74,1.96-0.27,3.15c1.38,3.43,0.14,6.13-3.4,6.82c-2.45,0.48-4.05,1.36-4.84,3.85
			c-0.56,1.76-2.18,2.09-3.72,1.3c-3.3-1.69-6.83-3.05-9.23-6.12c-0.53-0.68-0.99-1.39-1.03-2.27c-0.05-1.01-0.31-1.85-1.58-2.28
			c-0.42,1.07-0.79,2.18-1.3,3.23c-0.92,1.9-1.94,3.26-4.58,2.35c-2.27-0.78-5.29,1.36-6.43,3.91c-0.93,2.1-1.16,4.54-2.95,6.38
			c-1.24-1.09-1.32-2.57-1.47-3.86c-0.31-2.58-2.04-4.38-3.13-6.53c-0.57-1.12-1.33-0.92-1.99-0.13c-3.66,4.33-9.3,4.74-13.97,7.06
			c-0.33,0.16-0.89,0.26-0.95,0.49c-0.84,3.11-2.5,2.59-4.56,1.21c-0.36-0.24-1.21,0.3-1.85,0.41c-1.04,0.19-2.03,0.22-2.87-0.67
			c-2.44-2.59-7.67-3.35-10.53-1.55c-1.3,0.82-2.69,0.79-4.08,0.41c-0.9-0.25-1.75-0.68-2.62-1.03c-1.35-0.53-2.73-0.86-4.05-0.02
			c-0.71,0.45-0.91,1.27-0.46,1.99c0.85,1.37,1.83,2.66,3.62,2.85c2.36,0.26,4.68-0.23,7.02-0.47c2.03-0.21,3.4,0.24,3.83,2.6
			c0.34,1.86,1.85,2.96,3.58,3.68c3.66,1.53,4.43,4.88,5.04,8.23c0.2,1.08-0.38,2.02-1.75,2.05c-0.96,0.02-1.9,0.15-2.55,0.97
			c-0.84,1.06-1.33,1.91,0.7,2.21c1.74,0.26,3.6,1.38,3.7-1.81c0.03-1.04,1.06-1.38,2.17-1.23c2.78,0.37,5.37,0.48,7.19-2.44
			c0.75-1.19,2.17-1.03,2.82,0.56c0.35,0.86,0.6,1.77,0.89,2.67c2.62-1.84,4.41-1.53,6.01,0.99c0.88,1.39,4.76,1.82,6.42,0.41
			c1.54-1.31,1.98-2.96,0.46-4.89c-2.32-2.95-1.55-5.75,1.91-7.17c1.13-0.46,1.54-1.19,1.97-2.15c2.36-5.28,3.42-5.76,9.13-4.37
			c4.38,1.07,8.76,2.14,13.14,3.17c3.41,0.8,6.71,1.78,9.45,4.13c1.07,0.91,2.32,1.67,3.88,1.14c0.95-0.33,1.48,0.2,1.71,0.98
			c0.63,2.18,1.5,1.47,2.71,0.42c2.56-2.23,4.21-2.28,6.71-0.09c2.11,1.86,4.02,3.95,5.98,5.97c0.3,0.31,0.59,0.84,0.53,1.21
			c-0.09,0.55-0.76,0.57-1.15,0.42c-2.25-0.86-3.24,0.76-4.38,2.13c-0.54,0.65-1.04,1.35-1.63,1.95c-1.84,1.86-3.53,1.78-4.74-0.46
			c-0.65-1.19-1.11-1.43-2.36-0.92c-2.01,0.83-4.06,0.35-6.06-0.28c-4.93-1.55-9.87-3.07-14.79-4.64c-1.55-0.5-2.57-0.58-3.76,1.09
			c-1.8,2.52-4.65,3.76-7.77,4.06c-1.86,0.18-3.22,1.1-4.19,2.54c-0.95,1.41-0.44,2.91,0.85,3.69c1.56,0.93,1.46-0.88,1.86-1.62
			c1.26-2.32,3.11-3.35,5.59-2.33c1.2,0.5,1.94-0.01,2.88-0.38c2.76-1.1,4.92-0.39,6.39,2.24c0.55,0.99,1.25,1.56,2.27,1.93
			c2.92,1.07,4.66,3.2,4.99,6.25c0.18,1.66,0.9,2.9,2.37,3.03c1.53,0.14,2.07-1.59,2.32-2.72c0.46-2.11,1.66-2.91,3.59-2.7
			c2.16,0.24,3.64,1.46,4.13,3.65c0.29,1.31-0.38,2.19-1.53,2.69c-1.05,0.46-1.88,0.99-1.3,2.31c0.31,0.7-0.3,1.94,0.94,2.06
			c1.14,0.1,2.27-0.28,3.04-1.21c0.53-0.65,0.87-1.45,1.36-2.14c1.9-2.64,3.91-2.77,6.15-0.4c1.57,1.67,3.59,1.55,5.52,1.25
			c2.03-0.31,4.01-0.97,6-1.51c1.28-0.35,1.91-0.33,1.63,1.4c-0.49,2.96,0.12,3.67,2.97,3.6c2.12-0.05,3.75,0.54,5.32,2.02
			c2.48,2.34,4.64,2.29,7.37,0.21c0.68-0.52,1.48-0.5,2.14-0.16c1.73,0.92,2.86,0.28,4.18-0.96c5.94-5.57,13.23-6.21,20.84-5.39
			c2.05,0.22,4.06,0.73,6.1,1.08c1.74,0.3,2.56,1.03,2.93,3.05c0.5,2.71-0.48,3.56-2.82,3.88c-1.55,0.21-3.08,0.57-5,0.93
			c2.13,2.05,4.52,2.36,6.86,2.75c1.09,0.18,2.43,0.09,2.35,1.76c-0.08,1.53-1.33,1.28-2.32,1.39c-4.05,0.46-4.05,0.46-3.82,4.39
			c0.07,1.23,0.08,2.47-0.83,3.46c-0.83,0.9-2.31,1.68-2.93,0.72c-2.14-3.32-5.21-1.65-7.86-1.71c-1.99-0.04-2.99-0.26-2.75-2.55
			c0.23-2.17-1.02-2.31-2.69-1.55c-0.94,0.43-1.9,0.89-2.89,1.07c-2.02,0.37-3.6,0.01-3.46-2.63c0.04-0.78,0.21-1.89-0.98-2.01
			c-0.89-0.09-1.22,0.81-1.48,1.48c-0.55,1.43-2.74,3.1,0.94,3.83c2.01,0.4,1.73,2.33,0.75,3.92c-0.34,0.55-1.71,0.96-0.26,1.87
			c1.62,1.02,1.56,2.16,0.04,3.32c-2.13,1.64-3.97,1.76-4.77-0.08c-0.64-1.5-1.27-1.85-2.85-1.64c-2.23,0.3-3.73-1.02-4.58-3.02
			c-1-2.36-1.4-4.72,0.47-6.88c0.53-0.61,1.19-1.12,1.87-1.76c-1.22-0.47-2.18-0.08-3.17,0.13c-1.1,0.24-2.47,0.57-3.2-0.4
			c-1.52-2-3.56-1.78-5.61-1.79c-3.1-0.02-6.21-0.03-9.31,0.02c-0.93,0.01-1.86,0.2-2.78,0.34c-0.96,0.14-1.82,1.99-2.53,0.98
			c-0.75-1.06-1.14-2.87-0.15-4.22c1.59-2.17-0.16-2.43-1.52-2.66c-2.27-0.4-3.98,0.93-5.49,2.37c-1.43,1.37-2.31,1.46-2.77-0.71
			c-0.42-1.99-1.45-1.73-2.87-0.88c-4.17,2.5-6.83,2.1-10.3-1.39c-3.67-3.68-3.85-3.74-7.99-0.83c-1.41,0.99-3,1.44-5.09,1.99
			c0.74,0.14,0.97,0.21,1.2,0.22c1.69,0.08,3.75-0.11,3.8,2.28c0.06,2.5-1.98,2.59-3.83,2.61c-1.5,0.02-3.01-0.03-4.51,0.01
			c-2.44,0.07-4.21-0.54-3.56-3.52c0.21-0.98-0.15-1.21-0.99-1.06c-4.06,0.74-6-1.83-7.66-4.87c-1.6-2.95-3.97-4.94-7.24-5.85
			c-1.51-0.42-2.13-0.27-1.61,1.54c0.78,2.7,1.29,5.48,2.03,8.2c0.58,2.15,0.27,3.98-1.67,5.19c-1.83,1.14-3.59,0.75-5.13-0.74
			c-0.4-0.38-0.95-0.97-1.37-0.92c-3.72,0.44-5.7-3.02-8.84-3.86c-0.48-0.13-1.19-0.71-1.19-1.09c-0.03-2.86-2.36-3.84-4.09-5.34
			c-0.56-0.48-1.12-1.07-1.41-1.73c-3.44-7.84-10.8-8.88-17.88-10.14c-2.92-0.52-6-0.11-9.01-0.07c-1.64,0.02-3.16-0.38-4.64-1.04
			c-3.37-1.5-3.81-2.6-1.89-5.78c1.32-2.19,0.49-3.14-1.51-4.08c-3.6-1.69-7.48-3.04-9.66-6.78c-0.4-0.68-1.13-1.25-1.88-0.71
			c-0.88,0.63-0.19,1.41,0.29,1.92c1.62,1.71,3.07,3.47,4.02,5.71c0.56,1.31,2.32,0.97,3.55,1.31c3.24,0.89,2.97,1.57,1.55,4.3
			c-1.62,3.12-3.46,2.43-5.8,1.88c-1.68-0.39-1.98,0.43-1.42,1.91c0.75,1.99,2.42,2.69,4.23,3.38c5.83,2.23,11.76,4.27,16.38,8.8
			c1.22,1.19,2.78,1.39,4.47,0.96c1.95-0.49,3.94-0.65,5.55,0.96c0.52,0.52,1.21,1.1,0.97,1.92c-0.24,0.81-1.1,0.51-1.71,0.56
			c-0.74,0.07-1.74-0.1-2,0.69c-0.31,0.91,0.83,1.08,1.35,1.53c2.21,1.89,3.09,4.4,3.6,7.14c0.32,1.75,0.68,3.5,1.19,5.2
			c0.47,1.6,1.51,2.92,3.12,3.42c2.04,0.63,3.48,1.77,4.06,4.01c1.52-2.12,3.5-1.52,5.27-1.31c1.25,0.14,2.25,0.49,3.18-0.87
			c0.99-1.45,2.73-0.95,4.19-0.96c0.95,0,0.99,0.72,0.79,1.41c-0.26,0.9-0.65,1.77-0.87,2.68c-0.18,0.75-1.06,1.67-0.1,2.28
			c0.75,0.48,1.66-0.14,2.34-0.59c2.04-1.36,3.95-2.91,5.15-5.12c0.64-1.19,1.46-1.94,2.89-1.77c1.38,0.16,2.3,0.98,2.56,2.27
			c0.41,2,1.51,2.88,3.52,2.87c0.63,0,1.31,0.24,1.89,0.53c3.71,1.86,7.32,2.09,10.92-0.37c0.73-0.5,1.9-0.91,2.67-0.68
			c3.29,0.94,5.69-0.42,8.2-2.31c1.47-1.1,3.49-1.22,5.43-0.89c2.82,0.48,5.53,0.25,8.26-0.9c5.36-2.27,10.14-0.79,13.61,4
			c1.92,2.65,3.45,5.67,6.84,6.84c0.85,0.29,0.99,1.1,0.98,1.86c-0.01,0.8-0.65,1.06-1.33,1.22c-1.36,0.31-2.72,0.62-4.59,1.05
			c1.7,1.12,3.18,0.81,4.55,0.79c2.39-0.03,4.26,0.74,5.27,3c0.57,1.28,1.21,1.5,2.29,0.52c0.78-0.71,1.8-1.05,2.86-1.02
			c1.15,0.04,2.43,0.27,2.99,1.29c0.7,1.27-0.82,1.67-1.45,2.35c-0.89,0.96-1.91,1.81-2.93,2.65c-0.83,0.69-1.68,1.32-0.99,2.56
			c0.6,1.08,1.57,1.84,2.76,1.46c2.56-0.83,4.52,0.2,6.57,1.52c3.95,2.55,8.43,2.16,12.85,2.2c1.51,0.01,3.89-1.13,4.34,1.21
			c0.46,2.39-2.23,1.94-3.57,2.6c-1.42,0.7-3,1.09-4.52,1.57c-2.22,0.69-4.22,1.48-4.58,4.28c-0.15,1.17-1.26,1.79-2.54,1.85
			c-1.4,0.07-1.98-0.8-2.4-1.94c-0.32-0.88-0.63-1.79-1.13-2.57c-0.91-1.42-2.14-2.2-3.76-0.99c-2.08,1.55-3.66,0.79-5.06-1
			c-1.01-1.29-1.69-1.66-2.91,0.07c-1.43,2.03-2.26,3.91-1.84,6.46c0.6,3.62-1.38,5.91-5,6.37c-0.67,0.09-1.03-0.17-1.47-0.55
			c-5.76-5.06-5.06-13.04,1.52-16.91c1.29-0.76,2.7-1.32,4.07-1.94c1.13-0.51,1.75-1.26,1.77-2.59c0.02-1.25-0.51-1.92-1.6-2.34
			c-0.43-0.17-1.04-0.33-1.21-0.67c-1.68-3.39-4.42-3.12-6.98-2.13c2.57-0.2,4.19,1.89,5.9,3.82c0.76,0.85,1.07,1.81,0.31,2.81
			c-0.77,1.01-2.01,1.56-2.96,0.75c-2.94-2.51-7.41-2.07-9.95-5.35c-0.62-0.8-1.68-1.25-1.5-2.48c0.2-1.27,1.21-1.53,2.27-1.72
			c0.79-0.14,1.99-0.09,1.72-1.29c-0.27-1.21-1.49-1.62-2.49-1.01c-3.43,2.08-7.01,2.11-10.87,1.67c-3.23-0.37-4.58,0.95-5.25,4.03
			c-0.52,2.39-2.09,3.38-4.36,3.72c-2.12,0.32-2.86-0.78-3.58-2.58c-0.9-2.26-1.92-4.51-5.39-3.81c-1.8,0.36-3.86-0.57-5.8-0.89
			c-3.59-0.59-6.85,0.75-10.16,1.79c-2.22,0.69-4.29,0.84-5.82-2.51c-0.45,2.53,0.38,3.98,0.97,5.44c1.07,2.65-0.16,4.37-3.03,4.05
			c-1.62-0.18-3.02-0.97-4.38-1.84c-3.51-2.26-8.82-0.41-10.2,3.56c-0.74,2.14-1.46,4.28-3.2,5.87c-0.67,0.61-0.63,1.3-0.22,2.04
			c0.45,0.8,1.14,0.41,1.75,0.35c0.19-0.02,0.37-0.07,0.55-0.13c2.69-0.92,4.76,2.39,7.11,1.38c2.54-1.09,4.74-1.24,7.31-0.41
			c4.97,1.61,10.03,0.97,15.07,0.28c1.02-0.14,1.56-0.82,2.07-1.7c1.58-2.71,3.83-2.98,6.22-0.83c2.65,2.38,2.72,2.36,4.63-0.79
			c0.78-1.29,1.64-3.13,3.14-2.82c1.36,0.28,0.92,2.37,1.25,3.67c0.86,3.34-1.17,4.45-4.35,4.85c2.09,1.7,4.17,0.93,5.25,0.08
			c1.53-1.22,2.75-0.76,4.15-0.51c2.77,0.49,5.43,1.57,8.28,1.55c1.95-0.01,3.17-0.47,1.85-2.87c-1.12-2.03-0.03-4.94,2.06-6.4
			c2.22-1.55,3.65-0.18,5.03,1.4c0.24,0.28,0.53,0.71,0.82,0.74c3.66,0.32,3.63,2.98,3.45,5.57c-0.2,2.95-1.98,4.77-4.74,5.67
			c-0.79,0.26-1.78,0.05-2.33,0.82c-1.99,2.78-4.63,2.43-7.36,1.55c-5.79-1.88-11.33-1.03-16.68,1.55c-3.17,1.53-3.29,2.6-0.85,5.19
			c1.23,1.31,2.78,1.81,4.51,2.05c2.51,0.35,4.79,1.12,5.69,3.89c0.08,0.26,0.26,0.62,0.46,0.69c5.17,1.62,9.12,6.85,15.43,5.13
			c1.2-0.33,1.94-0.74,2.37-2.01c0.79-2.35,2.7-3.13,5.07-3.27c2.32-0.14,3.81,0.72,4.49,2.93c0.41,1.33,1.34,1.7,2.61,1.56
			c1.58-0.18,3.17-0.41,4.76-0.51c1.17-0.07,1.57-0.87,1.96-1.74c0.56-1.24,1.4-2.22,2.67-2.78c1.51-0.66,2.56-0.84,2.91,1.41
			c0.47,3.01,6.07,6.99,9.17,6.81c2.03-0.12,2.98-1.43,3.23-3.3c0.08-0.63-0.21-1.3-0.17-1.95c0.11-1.55-0.21-3.44,1.48-4.26
			c1.84-0.89,2.94,0.62,3.93,1.88c1.01,1.28,2.4,1.87,3.89,2.08c8.68,1.23,15.29,6.44,21.94,11.47c2.77,2.1,5.06,4.81,8.99,4.61
			c0.57-0.03,1.4,0.37,1.71,0.84c1.76,2.63,4.38,2.6,7.06,2.48c3.36-0.15,5.89,1.18,7.17,4.36c0.91,2.26,2.34,3.73,4.72,4.42
			c1.14,0.33,2.14,1.15,3.19,1.77c1.01,0.6,11.82,2.45,12.91,2.09c1.15-0.38,2.23-1.29,3.37-1.35c3.06-0.14,5.54-1.17,7.83-3.26
			c0.88-0.8,2.28-1.13,3.07-2.26c0.44-0.64,1.13-0.98,1.89-1.15c2.98-0.69,3.36-1.88,1.3-4.19c-0.44-0.49-0.94-1.25-1.45-1.27
			c-3.1-0.16-5.36-1.26-6.5-4.41c-0.33-0.92-1.31-0.44-2.08,0.21c-4.08,3.43-10.53,2.37-13.43-2.16c-0.3-0.47-0.38-1.23-0.96-1.3
			c-5.25-0.63-9.9-4.37-15.55-2.95c-2.72,0.68-5.27-0.01-7.49-1.57c-2.08-1.46-4.74-1.89-6.55-3.8c-2.15-2.27-2.03-3.25,0.66-4.82
			c0.75-0.44,1.87-1.04,1.46-1.81c-1.34-2.5,0.31-5.66-1.55-7.76c-1.68-1.9-3.71-3.67-6.44-4.21c-1.35-0.27-2.55-0.91-2.56-2.55
			c0-1.58,1.08-2.31,2.45-2.68c2.08-0.56,4.22-0.92,6.15-1.99c2.14-1.2,1.47-2.93,1.03-4.69c-0.44-1.74-1.38-1.85-3.11-1.75
			c-3.65,0.2-7.11-1.31-10.66-2.06c-1.73-0.36-4.48-6.02-4.39-7.8c0.12-2.28,2.03-2.51,3.52-3.4c-2,0.55-4.78-1.43-5.73,2.25
			c-0.38,1.47-1.87,2.37-3.27,2.93c-1.63,0.66-3.18,0.18-4.35-1.13c-1.19-1.33-0.49-2.61,0.32-3.84c1.03-1.56,2.27-2.74,4.28-2.83
			c2.33-0.1,3.38-2.18,4.85-3.45c1.1-0.96,0.13-2.45-0.93-3.39c-1.05-0.93-2.18-1.78-3.18-2.77c-0.61-0.6-0.96-1.49-0.62-2.34
			c0.37-0.9,1.28-0.96,2.15-1.03c2.18-0.17,3.85,0.83,5.2,2.36c1.89,2.15,4.05,2.5,6.59,1.43c1.57-0.67,3.2-1.05,4.93-1
			c0.97,0.03,2.29,0.42,2.71-0.87c0.41-1.25-0.33-2.38-1.16-3.31c-0.65-0.73-1.54-1-2.52-1.09c-0.67-0.06-1.71,0.37-1.88-0.67
			c-0.14-0.8,0.7-1.27,1.28-1.73c0.51-0.4,1.14-0.97,1.69-0.94c3.19,0.18,6.37-1.51,9.55,0c1.2,0.57,2.5,0.82,3.84,0.72
			c2.01-0.15,3.71,0.5,5.08,1.96c1.48,1.59,3.13,1.6,5.14,1.04c4.97-1.39,9.85-1.3,14.33,1.72c1.25,0.84,2.27,1.76,1.63,3.46
			c-0.61,1.64-1.99,1.79-3.47,1.79c-1.09,0.01-2-0.43-2.89-0.97c-2.5-1.51-4.99-1.38-7.43,0.17c-3.66,2.32-7.32,4.11-11.87,2.09
			c-1.84-0.82-3.88,0.45-5.67,1.18c-1.14,0.47-0.39,1.47,0.2,2.06c1.34,1.35,3.11,1.74,4.91,1.83c2.06,0.1,4.13,0.21,6.18-0.22
			c1.39-0.29,2.78-0.25,3.23,1.38c0.44,1.6-0.48,2.96-1.89,3.34c-2.04,0.56-2.99,1.81-3.93,3.57c-1.16,2.17-3.48,1.31-5.38,1.21
			c-0.92-0.05-1.8-0.53-2.76-0.12c-1.25,0.54-2.28,1.39-2.99,2.5c-1.33,2.05,1.17,1.79,1.77,2.69c2.16,3.22,4.84,4.23,8.37,1.87
			c1.01-0.68,1.67,0.49,2.29,1.13c1.76,1.85,3.5,2.83,6.16,1.34c2.17-1.21,4.61-0.07,5.94,2.21c2.41,4.13,7.18,6.14,11.69,4.88
			c1.32-0.37,2.67-0.67,3.68,0.47c1.11,1.25,0.58,2.62-0.06,3.94c-1.65,3.4-0.19,6.09,3.58,6.52c1.3,0.15,2.63,0.1,3.94,0.16
			c0.92,0.04,1.65,0.42,1.92,1.36c0.3,1.02-0.07,1.84-0.89,2.48c-0.77,0.6-1.66,0.83-2.63,0.87c-3.85,0.14-7.69,0.33-11.54,0.48
			c-2.02,0.08-3.92-0.07-5.59,1.74c-1.43,1.55-1.74,2.54,0.09,3.74c1.65,1.09,3.32,1.13,4.99-0.04c1.15-0.8,2.27-1.69,3.67-2.07
			c2.49-0.67,4.3,0.53,4.33,3c0.01,0.74,0.05,1.33,0.77,1.61c0.73,0.28,1.67,0.4,2.11-0.24c2.34-3.4,4.91-1.53,7.37-0.35
			c1.2,0.58,1.88,1.63,2.88-0.54c0.85-1.85,3.08-1.9,5-1.04c0.73,0.32,1.32,0.85,0.82,1.77c-1.2,2.2,0.23,2.95,1.95,3.3
			c8.73,1.8,17.42,3.96,26.45,3.49c2.22-0.11,4.04,0.28,5.38,2.28c0.55,0.82,1.52,1.4,2.39,1.94c1.06,0.66,2.04,0.79,2.82-0.59
			c0.4-0.7,1.09-1.3,1.78-1.76c1.14-0.76,2.53-1.24,3.65-0.23c1.31,1.18,0.44,2.44-0.47,3.44c-0.99,1.1-1.2,2.01,0.03,3.1
			c1.31,1.15,2.15,0.42,3.09-0.51c1.42-1.4,3.08-2.45,4.94-3.19c1.27-0.51,1.57-0.23,1.95,1.23c1.04,3.98-1.08,6.79-3,9.71
			c-0.98,1.49-2.62,1.84-3.89,0.61c-1.41-1.37-2.65-1.11-4.05-0.35c-3.5,1.89-7.18,2.75-11.14,1.97c-1.07-0.21-1.74,0.36-2.51,0.95
			c-2.25,1.75-4.32,1.66-6.16-0.53c-1.37-1.64-2.83-2.98-4.87-3.65c-0.34-0.11-0.66-0.36-0.94-0.61c-2.97-2.6-2.98-2.61-6.24-0.06
			c-1.41,1.1-2.86,2.96-3.09-0.83c-0.1-1.69-1.78-2.11-3.17-2.31c-3.16-0.45-6.26-0.61-8.74-3.24c-1.22-1.29-2.22,0.46-3.41,1.62
			c3.46,0.63,4.66,2.78,4.48,5.85c-0.08,1.39,0.73,1.99,1.91,2.41c1.42,0.5,2.54,1.37,2.45,3.05c-0.09,1.68-1.7,1.53-2.74,1.96
			c-2.54,1.06-5.04,0.21-7.4-0.61c-1.75-0.61-2.99-0.83-3.93,1.13c-0.64,1.32-2.01,1.86-3.35,1.54c-1.87-0.45-2.9,0.29-3.54,1.86
			c-1.21,2.97-3.67,3.61-6.27,2.75c-4.89-1.62-9.51-0.41-14.07,0.94c-3.59,1.06-6.89,1.26-10.41-0.19
			c-3.86-1.59-4.76-1.23-7.33,1.83c-0.06,0.07-0.12,0.14-0.19,0.21c-2.23,2.31-11.42,1.96-13.43-0.55c-0.76-0.94-1.59-1.9-0.81-3.28
			c0.69-1.21,1.9-1.92,3.05-1.6c2.54,0.71,4.09-0.26,5.48-2.21c0.67-0.93,1.85-1.58,2.97-1.35c3.64,0.74,2.83-2.26,3.09-3.87
			c0.32-2.02,0.68-4.53-2.5-5.05c-0.83-0.14-1.68-0.27-2.47-0.55c-2.26-0.82-4.28-1.5-3.14,2.33c0.34,1.14-0.35,1.76-1.56,1.7
			c-2.11-0.1-3.93,0-5.21,2.29c-0.92,1.63-3.02,1.11-4.7,1.01c-0.63-0.04-1.36-0.41-1.8,0.33c-0.46,0.77-0.03,1.46,0.4,2.08
			c0.98,1.39,2.07,2.66,3.56,3.56c1.5,0.91,2.13,2.33,1.98,4.08c-0.04,0.45-0.11,0.97-0.36,1.32c-0.59,0.84-7.28,2.15-8.1,1.49
			c-0.97-0.77-1.85-0.71-2.87-0.32c-2.56,0.95-5.21,0.5-7.82,0.45c-0.53-0.01-1.37-0.18-1.54-0.53c-1.57-3.26-4.09-1.84-6.62-1.79
			c-5.43,0.12-10.88-0.34-16.32-0.59c-1.87-0.09-3.74-0.29-5.61-0.42c-1.93-0.13-3.6-0.56-3.62-2.99c-0.01-1.3-0.91-1.46-1.92-1.55
			c-3.19-0.28-6.2,0.19-8.84,2.13c-1.86,1.36-3.44,1.63-5.02-0.56c-1.09-1.51-4.96-0.36-6.12,1.69c-0.13,0.23-0.05,0.75-0.18,0.79
			c-2.35,0.74-2.28,3.05-3.29,4.7c-1.16,1.91-3.28,3.05-5.31,4.07c-0.41,0.21-1.11,0.46-1.13,0.74c-0.23,3.09-3.12,4.59-4.15,7.13
			c-1.12,2.76-2.53,5.23-4.81,7.17c-0.58,0.5-1.19,1.11-1.04,1.91c0.48,2.53-0.45,5.18,0.1,7.52c0.94,4.02,1.82,8,4.59,11.61
			c2.31,3.01,4.16,4.76,8.11,4.69c2.58-0.04,4.97,1.68,6.36,4.16c1.2,2.13,0.62,3.12-1.77,3.24c-3.37,0.16-6.72,0.75-10.12,0.59
			c-1.74-0.08-3.62-0.18-4.77-1.39c-2.2-2.33-4.91-2.42-7.56-1.93c-4.49,0.83-8.79,0.08-13.11-0.84c-3.19-0.68-6.28-0.56-9.43,0.46
			c-5.68,1.84-11.32,0.88-16.9-0.71c-0.42-0.12-1-0.15-1.01-0.77c-0.02-0.57,0.48-0.75,0.89-0.97c3.29-1.81,6.59-3.62,9.89-5.43
			c2.39-1.31,4.48-2.83,4.48-5.96c0-0.44,0.17-1.09,0.48-1.28c3.09-1.92,2.17-5.06,2.86-7.85c0.88-3.53,1.54-6.4-1.28-9.28
			c-0.84-0.86-0.7-2.42-0.12-3.51c1.6-3.03,0.08-5.03-2.1-6.79c-3.89-3.13-8.44-4.98-13.21-6.11c-8.77-2.07-17.59-4.04-26.72-3.52
			c-3.65,0.21-7.06-0.92-10.48-1.91c-2.23-0.64-4.18-0.85-6.38,0.56c-2.66,1.71-4.99,0.63-6.17-2.37c-0.51-1.28-1.21-2.31-2.45-2.96
			c-1.41-0.74-2.5-1.04-3.32,0.92c-1,2.38-3.08,3.83-5.51,4.49c-5.98,1.62-11.94,3.43-18.02,4.5c-5.03,0.88-10.01,0.35-13.44-4.48
			c-0.83-1.17-2.05-1.68-3.83-0.46c-2.55,1.75-5.6,1.24-8.37,0.04c-1.23-0.54-2.06-0.78-3.2,0.33c-1.47,1.44-2.98,0.38-4.31-0.55
			c-1.35-0.95-2.47-1.3-3.41,0.54c-0.86,1.67-2.95,2.03-3.97,3.8c-0.81,1.4-2.99,0.37-3.51-1.55c-1.11-4.13,0.42-7.12,4.45-8.47
			c0.87-0.29,1.49-0.73,1.97-1.47c0.79-1.23,1.89-2.15,3.3-2.5c1.77-0.44,1.63-1.09,0.54-2.22c-1.2-1.24-1.6-2.94-2.27-4.5
			c-1.06-2.48-2.54-2.9-4.7-1.35c-1.52,1.1-3.2,1-4.88,0.79c-1.41-0.18-1.77-1.32-1.68-2.52c0.09-1.28,0.69-2.6,1.91-2.92
			c3.25-0.85,5.19-2.66,5.43-6.1c0.02-0.24,0.25-0.6,0.47-0.67c3.14-1.13,5.18-3.75,7.79-5.59c1.41-0.99,3.13-1.05,4.76,0.12
			c-1.26-3.03-2.82-5.63-5.45-7.46c-0.6-0.42-1.37-0.92-1.58-1.54c-1.07-3.13-3.67-3.42-6.32-3.54c-2.53-0.12-5.08-0.07-7.62-0.11
			c-1.33-0.02-2.14,0.27-1.93,1.93c0.22,1.76-0.49,3.23-2.39,3.59c-1.84,0.35-2.34-1.02-2.82-2.46c-0.61-1.85-2.04-2.62-3.95-2.49
			c-1.95,0.13-3.03,1.23-3.48,3.11c-0.55,2.29-1.84,2.7-3.6,1.12c-1.8-1.6-2.63-4.03-1.53-5.87c1.6-2.67-0.99-2.89-1.76-4.04
			c-0.92-1.37-2.14-0.55-3.13,0.29c-1.6,1.35-3.11,1.1-4.49-0.32c-1.45-1.49-1.19-3.03-0.01-4.56c1.95-2.54,5.67-3.16,8.97-1.52
			c3.29,1.63,6.29,1.04,9.44-0.75c3.11-1.77,6.06-3.6,8.43-6.31c0.36-0.42,1.14-0.66,1.25-1.09c0.74-3.17,2.76-4.99,6.46-5.49
			c-2.15-1.99-4.77-2.72-4.92-5.47c-0.07-1.27,0.41-2.4,1.1-3.43c1.56-2.35,2.68-2.47,6.44-0.68c-0.13-1.82-1.77-3.55,1.04-5.2
			c1.45-0.85,2.2-2.83,4.5-2.47c1.03,0.16,2.16-0.06,2.44-1.37c0.31-1.49-0.97-1.59-1.88-1.96c-1.82-0.74-2.85-3.22-5.37-2.41
			c-0.77,0.25-1.68,0.08-2.09,1.11c-0.65,1.6-1.98,2.48-3.59,2.91c-1.54,0.41-1.8,1.7-2.29,2.93c-0.52,1.31-1.15,2.82-2.97,2.37
			c-1.61-0.4-2.03-1.83-2.04-3.33c-0.01-1.32,0.04-2.63,0.14-3.95c0.08-1.2,0.6-2.29,1.77-2.67c2.45-0.79,4.95-1.41,7.54-2.14
			c-1.37-0.06-2.67-0.07-3.95-0.2c-1.3-0.13-2.34-0.72-2.73-2.07c-0.34-1.19,0.15-2.06,1.2-2.55c1.12-0.52,0.77-1.02,0.15-1.67
			c-1.32-1.38-1.69-2.96-0.54-4.6c1.1-1.57,2.61-2.05,4.45-1.26c0.95,0.41,1.61-0.06,2.2-0.75c0.8-0.94,1.78-1.65,2.97-2.14
			c-0.74-0.21-1.34,0.01-1.96,0.26c-1.78,0.73-2.23,0.07-1.77-1.66c0.16-0.62,0.16-1.32,0.1-1.96c-0.17-1.69-0.2-3.09,2.23-2.29
			c0.64,0.21,1.4-0.26,1.66-0.85c1.45-3.22,4.79-4.39,7.11-6.66c1.77-1.74,3.91-1.54,5.6,0.01c2.76,2.54,6.52,3.63,8.74,7.2
			c0.96,1.54,3.96,3.62,7.09,2.47c1.9-0.7,3.38,0.57,4.89,1.54c0.92,0.59,2.22,2.25,2.99,0.84c0.64-1.16,0.87-3.32-0.93-4.51
			c-0.63-0.41-1.31-0.74-1.94-1.15c-1.05-0.69-1.58-1.7-1.15-2.91c0.46-1.3,1.67-1.39,2.83-1.25c2.42,0.31,4.32,1.76,6.29,3.03
			c0.71,0.46,1.4,0.96,2.14,1.37c0.7,0.39,1.61,1.32,2.22,0.58c0.54-0.66,0.49-1.87,0.52-2.84c0.02-0.91-0.79-1.24-1.53-1.39
			c-0.73-0.15-1.49-0.13-2.25-0.16c-2.65-0.11-4.56-1.2-5.86-3.66c-1.77-3.38-8.58-5.14-11.86-3.2c-1.92,1.14-4,1-5.11-0.61
			c-2.89-4.21-7.49-5.47-11.66-7.52c-1.52-0.75-3.05-1.46-4.53-2.28c-1.13-0.62-1.43-1.7-1.17-2.92c0.25-1.14,1.09-2.05,2.12-1.96
			c3.72,0.33,6.85-1.88,10.38-2.17c2.88-0.24,5.9-0.63,8.01,2.13c0.42,0.55,0.87,0.63,1.46,0.38c0.17-0.07,0.36-0.23,0.52-0.21
			c3.1,0.46,5.99,0.11,8.91-1.27c1.33-0.63,2.96,0.38,3.98,1.59c2.33,2.78,5.91,2.01,8.83,3.08c1.17,0.43,2.26-1.12,3.1-2.14
			c1.84-2.24,4.03-3.61,7.07-3.27c2.44,0.28,4.14-2.17,6.67-1.89c0.57,0.06,0.48-0.96,0.26-1.44c-0.7-1.49-1.03-3.53-3.13-3.58
			c-4.87-0.11-9.71-1.23-14.61-0.34c-1.47,0.27-3,0.23-4.5,0.21c-0.73-0.01-1.88-0.06-2.1-0.48c-1.43-2.69-4.31-2.24-6.51-3.21
			c-1.12-0.5-2.63-2.19-3.41,0.56c-0.19,0.67-0.95,0.22-1.37-0.19c-2.19-2.12-4.09-4.4-4.55-7.58c-0.34-2.33-0.1-4.37,2.36-5.41
			c1.98-0.83,4.47,0.21,5.54,2.64c0.76,1.71,1.31,2.83,3.58,2.44c1.36-0.24,1.89,0.85,1.06,2.28c-1.01,1.74-0.09,2.37,1.62,2.45
			c1.54,0.08,2.99-0.3,4.41-0.79c0.63-0.22,1.69-0.23,1.51-1.31c-0.13-0.8-0.89-1.22-1.63-1.39c-0.82-0.19-1.68-0.19-2.52-0.26
			c-2.09-0.16-3.59-1.14-4.14-3.21c-0.5-1.89-0.61-3.51,1.65-4.72c1.39-0.74,2.13-2.28,0.07-3.79c-1.14-0.83-1.73-2.41-2.62-3.62
			c-0.41-0.56-0.61-1.58-1.62-1.19c-0.85,0.33-0.75,1.21-0.79,1.95c-0.01,0.28-0.01,0.56-0.01,0.85c-0.02,1.52,0.16,3.13-2.15,3.13
			c-2.26,0-3.64-0.98-4.03-3.25c-0.1-0.55-0.19-1.1-0.36-1.62c-1-3.25,1.55-7.14,4.83-7.34c0.66-0.04,0.98,0.44,1.37,0.85
			c1.73,1.78,3.38,1.51,5.17-0.03c2.72-2.34,4.3-2.12,6.53,0.71c3.46,4.38,7.28,4.69,11.9,1.17c1.58-1.2,3.68-1.52,5.28-0.21
			c2.78,2.27,6.26,1.36,9.49,2.92c-1.67-3.57-1.67-3.57,4.36-6.92c-4.92-0.28-7.24-3.5-9.89-6.3c-0.86-0.9-2.1-1.2-3.32-1.44
			c-1.15-0.22-2.13-0.72-2.76-1.77c-1.29-2.14-3.04-2.14-4.72-0.69c-1.73,1.5-3.47,1.58-5.49,0.85c-1.04-0.38-2.17-0.56-3.28-0.72
			c-1.87-0.26-3.73-0.59-3.61-3.02c0.11-2.3,1.79-3.17,3.84-3.34c3.34-0.28,4.97-2.27,4.53-5.51c-0.27-1.96-1.24-2.39-2.92-1.56
			c-0.93,0.46-1.79,1.04-2.74,1.45c-1.11,0.48-2.26,1.08-3.43,1.2c-1.75,0.17-3.58-0.2-3.79-2.41c-0.2-2.16,1.5-3.27,3.21-3.1
			c2.39,0.24,3.31-0.3,3.68-2.77c0.35-2.3,2.98-3.27,5.47-2.04c2.75,1.35,5.19,3.11,8.53,3.1c1.71,0,2.43,1.89,2.41,3.64
			c-0.01,0.91-0.17,1.81-0.33,3.38c1.77-2.14,4.07-2.46,5.32-4.58c1.02-1.72,3.06-1.03,4.15,0.23c3.33,3.85,5.91,8.24,8.54,12.57
			c0.62,1.02-0.05,1.64-1.09,1.67c-1.59,0.05-3.19,0-4.78-0.06c-0.63-0.02-1.34-0.47-1.71,0.4c-0.29,0.7,0.06,1.33,0.56,1.76
			c0.63,0.55,1.31,1.12,2.08,1.41c2.72,1.03,5.44,1.97,7.88,3.67c1.91,1.32,3.74-0.44,5.62-0.75c2.32-0.39,2.91-1.61,2.89-3.87
			c-0.02-3.67,1.98-6.03,5.56-7.26c0.69-0.23,1.71-0.16,1.77-1.07c0.06-0.91-0.99-1.01-1.62-1.32c-1.04-0.51-1.96-1.12-2.59-2.1
			c-0.86-1.33-1.37-2.82-0.6-4.26c0.85-1.59,2.49-0.89,3.83-0.78c1.29,0.1,2.82,1.27,3.63-0.64c0.54-1.26-1.67-5.72-2.85-5.92
			c-1.4-0.24-2.76-0.55-4.05-1.15c-0.81-0.38-1.46-0.25-1.92,0.55c-0.44,0.76,0.1,1.13,0.56,1.64c2.4,2.62,2.21,3.1-0.85,5.24
			c-2.2,1.53-1.33,4.01-1.32,6.16c0.01,1.11,0.39,2.22,0.37,3.33c-0.01,0.71-0.31,1.51-1.28,1.61c-0.87,0.09-1.69,0.09-2.22-0.8
			c-1.54-2.59-1.79-5.49-2.01-8.38c-0.03-0.42,0.2-1.1,0.51-1.26c3.1-1.54,1.02-3.84,0.75-5.72c-0.24-1.67-1.81-2.34-3.45-2.29
			c-1.68,0.05-3.17,0.61-3.87,2.31c-0.47,1.13-0.32,2.19,1.19,2.06c0.87-0.07,1.88-1.01,2.18,0.53c0.32,1.59,1.41,3.28,0.05,4.83
			c-0.89,1.01-2.19,1.12-3.4,0.65c-2.48-0.97-3.5-2.99-3.64-5.54c-0.07-1.28,0.08-2.61-0.94-3.86c-0.35,1.16,0.38,2.22-0.25,3.14
			c-0.75,1.09-1.89,1.12-3.02,0.99c-1.2-0.14-1.47-1.03-1.4-2.06c0.18-2.62,0.38-5.24,0.57-7.86c0.08-1.12,0.7-1.77,1.79-1.77
			c1.4-0.01,2.85-0.08,4.2,0.23c2,0.47,3.63,0.24,5.19-1.21c1.43-1.33,3.22-1.89,5.21-1.53c0.83,0.15,1.74,0.4,2.36-0.38
			c0.68-0.86-0.05-1.58-0.4-2.32c-0.08-0.17-0.21-0.32-0.27-0.49c-0.55-1.61-2.12-3.52,0.03-4.74c1.85-1.04,3.63,0.13,4.81,1.82
			c1.12,1.6,2.22,3.16,2.9,5.09c0.99,2.8,3.81,3.39,6.38,3.97c1.08,0.25,2.25,0.09,3.37,0.16c1.71,0.11,3.58-1.18,4.44,2.17
			c0.41,1.6,2.53,4.01,4.52,5.24c2.72,1.67,2.94,4.03,2.45,6.6c-0.5,2.62-2.61,3.84-5.05,4.24c-1.56,0.26-3.18,0.13-4.75-0.31
			c-0.91-0.26-1.95-0.37-2.58,0.55c-0.55,0.81,0.09,1.62,0.32,2.41c0.13,0.44,0.37,0.9,0.7,1.21c3.49,3.27,7.62,5.62,11.42,8.43
			c0.98-1.18,0.2-1.7-0.11-2.31c-1.3-2.58-3.19-5.04,0.2-7.67c1.17-0.91,0.13-2.83,0.32-4.31c0.37-2.92,2.21-5.37,2.32-8.33
			c0.02-0.55,0.4-1.4-0.15-1.55c-3.03-0.83-3.44-4.25-5.83-5.71c-1.39-0.85-2.32-2.03-0.85-3.68c0.23-0.26,0.38-0.68,0.39-1.02
			c0.04-1.95,0.92-3.32,2.87-3.62c2.03-0.31,2.92,1.29,3.87,2.72c2.03,3.04,2.45,6.88,5.03,9.68c1.08,1.17,1.97,2.01,3.73,1.99
			c3.14-0.05,3.92,1.27,2.41,3.95c-1.1,1.96,0.3,3.07,1.25,4.19c2.03,2.38,2.73,4.87,1.41,7.79c-2.33,1.05-4.52,1.09-6.46-0.87
			c-0.66-0.66-1.51-0.93-2.22-0.14c-0.72,0.8-1.93,1.39-1.74,2.72c0.2,1.33,1.28,1.07,2.21,1.07c0.36,0,0.72,0.17,1.08,0.27
			C265.02,83.17,265.02,83.17,267.35,78.72z M225.74,181.99c0.04,0.45,0.01,0.83,0.11,1.16c0.32,1.08,0.92,2.25-0.3,3.07
			c-1.26,0.85-2.54,0.47-3.62-0.46c-0.79-0.68-1.58-1.62-2.58-1.62c-6.33-0.05-11.37-5.47-18.3-3.93c-2.43,0.54-4.89,0.58-7.23,1.83
			c-2.48,1.32-5.23,2.5-7.63-0.41c-0.5-0.6-1.18-0.33-1.84-0.2c-3,0.63-5.62-0.07-7.6-2.49c-0.78-0.95-1.56-1.08-2.71-0.7
			c-2.58,0.85-6.35,6.14-6.13,8.84c0.03,0.33,0.27,0.7,0.52,0.94c3.22,3.18,7.25,2.12,8.54-1.57c0.92-2.65,3.17-3.66,5.86-2.65
			c1.67,0.63,2.68,1.97,3.67,3.38c1.89,2.68,4,2.98,6.72,1.04c4.37-3.12,8.06-1.88,9.7,3.32c0.38,1.21,0.86,2.2,1.97,2.94
			c3.6,2.39,7.15,4.85,10.72,7.29c0.96,0.66,1.98,1.18,3.16,0.73c2.26-0.87,4.47-1.29,6.83-0.22c1.13,0.51,1.92-0.77,1.33-1.23
			c-1.93-1.5-2-4.26-3.98-5.54c-1.54-1-2.97-2.07-2.27-4c0.72-1.98,2.69-1.71,4.38-1.55c2.34,0.22,6.28-2.4,6.33-4.74
			c0.07-3.08-2.9-2.52-4.76-3.21C226.39,181.92,226.1,181.99,225.74,181.99z M200.46,249.01c-3.6-1.95-4.63-3.68-3.15-5.51
			c1.25-1.55,1.79-3.24,2.23-5.06c0.36-1.52,1.22-2.69,2.51-3.61c3.48-2.48,7.18-3.57,11.42-2.25c1.24,0.38,2.57,0.62,3.87,0.64
			c2.94,0.05,4.7-1.76,4.77-4.72c0.06-2.68-0.97-4.93-3.4-6.03c-4.9-2.21-9.82-2.14-14.36,0.98c-3.13,2.15-9.26,0.95-9.44-2.26
			c-0.16-2.83-1.73-2.79-3.57-3.23c-1.76-0.42-3.34,0.3-4.99,0.51c-0.86,0.11-1.81,0.47-2.01-0.74c-0.24-1.49-1.56-2.06-2.31-3.1
			c-0.56-0.77-1.22-1.7-2.18-0.47c-0.65,0.85-1.13,1.79,0.13,2.63c1.1,0.74,2.09,1.66,2.63,2.89c0.6,1.39,1.49,1.68,2.92,1.36
			c1.87-0.41,3.76-0.3,5.45,0.74c1.15,0.7,1.65,1.77,1.44,3.12c-0.17,1.08-0.91,1.77-1.93,1.71c-3.98-0.24-8.1,0.28-11.81-1.79
			c-0.72-0.4-1.56-1.22-2.3-0.64c-1.79,1.4-1.66,3.54-1.29,5.44c0.27,1.4,1.4,2.59,3.09,2.14c1.86-0.49,3.63-0.16,5.24,0.53
			c4.16,1.77,7.86,1.62,11.59-1.27c2.33-1.81,4.66-0.39,4.8,2.61c0.2,4.11-1.94,6.92-5.2,9.05c-1.03,0.67-2.51,1.45-1.51,2.78
			c1.48,1.98,1.53,3.6,0.06,5.53c-0.46,0.61-0.58,1.8,0.15,2.36c0.8,0.61,1.62-0.15,2.21-0.71c0.53-0.5,0.96-1.15,1.3-1.81
			C197.5,249.55,198.44,248.79,200.46,249.01z M293.89,289.15c-0.08-3.46,2.07-3.47,4.09-3.37c2.1,0.1,3.4-0.66,3.96-2.72
			c0.22-0.81,0.56-1.61,0.99-2.33c1.15-1.94,2.96-1.96,4.23-0.09c0.52,0.76,0.59,1.81,1.47,2.35c0.78,0.48,1.41,1.16,2.3-0.1
			c2.26-3.17,2.68-8.38,8.4-7.88c0.14,0.01,0.32-0.19,0.44-0.33c1.62-1.93,3.88-2.53,6.19-3.05c1.1-0.25,2.44-0.44,2.54-1.81
			c0.1-1.39-1.08-2.11-2.25-2.57c-0.68-0.27-1.44-0.42-2.18-0.46c-2.99-0.18-4.71-1.6-4.83-4.71c-0.02-0.55,0.12-1.24-0.44-1.53
			c-0.76-0.4-1.24,0.29-1.64,0.75c-2.18,2.45-4.3,4.97-6.47,7.43c-3.46,3.91-6.33,8.5-11.79,10.07c-0.64,0.18-1.17,0.69-1.36,1.35
			c-0.66,2.24-2.14,3.92-3.6,5.64C293.25,286.58,292.52,287.53,293.89,289.15z M409.97,222.45c-4.41-0.45-4.22,2.57-5.07,4.57
			c-1.15,2.72-0.55,3.45,2.32,2.99c1.54-0.25,3.31-0.51,4.29,0.67c2.25,2.72,5.9,3.58,7.99,6.5c1.5,2.09,4.19,1.91,6.42,2.48
			c1.75,0.45,1.82-1.61,2.88-2.26c0.56-0.34,1.05-0.79,1.57-1.19c0.71-0.56,1.24-1.33,0.92-2.2c-1.07-2.91-2.31-5.77-4.99-7.62
			C421.1,222.78,414.68,224.2,409.97,222.45z M256.15,282.5c-2.16-0.31-3.34-2.77-5.62-2.39c-2.27,0.38-3.62-1.22-3.4-2.77
			c0.51-3.55-1.81-4.97-3.9-6.78c-0.91-0.79-1.73-1.74-2.4-2.74c-2.12-3.2-5.88-4.54-9.94-3.41c0.1,0.26,0.15,0.54,0.31,0.76
			c3.11,4.34,5.01,9.06,4.96,14.51c-0.02,1.68,1.35,2.42,2.95,2.15c1.94-0.33,3.71,0.05,5.48,0.76
			C248.42,284.13,252.27,283.53,256.15,282.5z M150.71,257.09c-1.16,1.08-2.12,1.94-3.58,1.9c-0.71-0.02-1.29,0.42-1.38,1.17
			c-0.2,1.65-1.05,2.96-1.91,4.33c-1,1.6-0.41,3.39,0.26,4.88c0.6,1.32,1.8-0.1,2.74,0c1.21,0.13,2.43,0.12,3.64,0.27
			c3.49,0.42,7.94-2.58,9.11-5.85c1.31-3.67-1.87-6.4-1.55-9.83c-1.31,1.4-3.38,2.46-0.46,4.35c1.42,0.92,1.3,3.01,0.53,4.7
			c-0.57,1.24-1.29,2.51-2.79,2.43c-1.74-0.09-2.24-1.77-3.05-3.02C151.24,260.87,151.9,258.87,150.71,257.09z M167.94,193.87
			c-0.33,1.89,0.89,2.82,1.18,4.03c0.26,1.11,0.56,2.34-0.63,3.06c-1.26,0.77-2.37,0.14-3.25-0.82c-0.69-0.76-1.17-1.71-1.9-2.43
			c-0.63-0.63-1.59-1.58-2.4-0.75c-1.04,1.06-1.5,2.63-1.46,4.13c0.03,1.09,1.17,1.08,2,1.05c2.55-0.09,4.77,0.79,6.9,2.09
			c1.2,0.73,2.46,1.42,3.78,1.85c2.16,0.71,4.41,0.04,5.57-1.64c1.16-1.69-0.35-3.49-1.71-4.61
			C173.52,197.77,170.83,195.98,167.94,193.87z M221.89,279.46c3.42,0.52,4.46-2.63,6.48-4.22c0.79-0.62,1.47-1.68,0.54-2.69
			c-0.78-0.85-1.85-0.87-2.82-0.21c-1.43,0.98-3.03,1.15-4.57,0.61c-2.54-0.89-4.8-0.1-7.06,0.84c-2.36,0.99-2.5,2.23-0.38,3.72
			C216.42,279.15,219.24,279.03,221.89,279.46z M387.77,263.34c-3.45,0.5-6.91,0.6-10.38,0.58c-0.71-0.01-1.73-0.25-2,0.6
			c-0.34,1.03,0.79,1.32,1.4,1.84c5.2,4.47,10.7,0.56,16.06,0.54c0.77,0,1.56-0.61,2.31-0.99c0.58-0.29,0.69-0.86,0.6-1.45
			c-0.09-0.54-0.44-0.87-0.98-0.74C392.4,264.28,390.12,263.16,387.77,263.34z M178.99,255.29c1.62,0.49,2.71-0.73,2.6-2.5
			c-0.07-1.1-0.66-2.27-0.84-3.48c-0.19-1.34-0.97-0.79-1.85-0.46c-5.22,1.95-10.38,4.94-16.09,1.24c-0.63-0.41-1.8-1.37-2.33,0.05
			c-0.45,1.19,0.76,1.34,1.61,1.78C167.25,254.67,172.99,254.35,178.99,255.29z M276.14,285.83c0.02-0.57,0.03-1.16-0.5-1.52
			c-1.6-1.09-2.42-2.79-3.54-4.28c-1.11-1.48-2.47-2.79-3.83-4.07c-0.87-0.83-2.09-1.2-3.02-0.25c-0.88,0.9,0.15,1.73,0.67,2.41
			c0.96,1.25,1.64,2.7,2.49,3.92c1.38,1.99,2.79,4.15,5.1,5.42C275.59,288.62,275.91,287.4,276.14,285.83z M248.43,258.33
			c-2.03,0.03-3.82,2.64-2.84,3.53c2.54,2.32,4.26,5.79,8.22,6.26c0.65,0.08,1.38,0.34,1.88-0.16c0.57-0.58,0.11-1.27-0.23-1.79
			c-0.78-1.17-1.13-2.73-1.94-3.65C252,260.8,250.27,259.06,248.43,258.33z M200.49,259.13c-0.93,0.09-1.87,0.12-2.79,0.27
			c-1.42,0.22-3.42-0.63-3.58,1.97c-0.1,1.65-0.97,3.32,0.15,4.91c0.91,1.28,2.16,2.05,2.89,0.1c0.93-2.5,2.78-3.05,5.02-3.28
			c0.8-0.08,1.87,0.11,2.06-1c0.15-0.89-0.56-1.56-1.18-2.13C202.36,259.3,201.46,259.02,200.49,259.13z M181.75,170.42
			c1.33,1.79,2.88,2.27,4.19,3.04c1.17,0.68,2.94,0.31,3.57,1.91c0.49,1.24,1.35,1.14,2.28,0.76c0.84-0.34,2.04-0.34,2.33-1.36
			c0.32-1.16-0.58-2.02-1.44-2.52C189.43,170.33,185.85,170.35,181.75,170.42z M262.29,143.97c1.25,1.77,1.01,3.28,0.04,5
			c-0.94,1.66-0.22,3.5,1.43,4.31c1.71,0.84,2.5-0.83,3.1-2.06C268.75,147.36,267.12,144.63,262.29,143.97z M379.08,280.08
			c-1.12-1.01-1.84-2.82-3.38-2.26c-1.87,0.68-4.56,0-5.42,2.72c-0.03,0.09-0.02,0.19,0,0.28c0.27,1.31,4.95,3.07,5.76,2.01
			C376.89,281.73,378.33,281.33,379.08,280.08z M202.67,164c-2.3,1.66-4.43,1.41-6.83,0.21c-1.7-0.85-2.37,1.24-3.01,2.23
			c-0.78,1.21,0.73,1.47,1.53,1.69C199.59,169.52,199.89,169.12,202.67,164z"/>
		<path class="st0" d="M435.22,152.92c1.2,2.33,2.38,4.45,3.38,6.65c0.69,1.53,1.72,2.16,3.33,1.87c1.75-0.31,3.6-0.39,5.23-1.03
			c3.39-1.34,6.39-0.67,9.31,1.18c0.38,0.24,1.08,0.66,1.2,0.54c1.78-1.66,3.05-0.26,4.42,0.63c2.29,1.49,3.56,3.82,4.97,6.04
			c0.16,0.25,0.07,0.75-0.06,1.07c-0.56,1.39-5.95,2.95-7.2,2.09c-1-0.69-1.92-1.48-2.91-2.17c-3.12-2.16-6.12-2.44-8.93,0.57
			c-0.3,0.32-0.76,0.56-1.3,0.28c-0.51-0.85,0.37-1.56,0.27-2.64c-0.98,0.43-2.49,0.19-2.16,1.81c0.28,1.35,0.61,3.05,2.89,2.51
			c1.86-0.44,3.58,0.15,4.77,1.72c0.99,1.32,1.58,2.77,0.79,4.46c-0.73,1.57-2.14,1.3-3.42,1.28c-4.43-0.07-8.82,0.08-13.14,1.2
			c-1.7,0.44-3.19,0.27-3.64-1.92c-0.37-1.84-1.96-2.49-3.48-2.93c-2.61-0.76-4.79-2.11-6.62-4.1c-1.31-1.42-3.08-2.11-4.79-2.9
			c-1.98-0.92-3.82-2.06-5-3.98c-2.02-3.27-1.05-5.38,2.68-5.87c0.55-0.07,1.11-0.08,1.76-0.42c-5.15-0.02-8.99-3.06-13.15-5.34
			c-0.99-0.54-1.97-1.11-2.89-1.76c-1.44-1.02-2.54-2.31-2.26-4.24c0.27-1.83,1.49-2.7,3.24-3.03c0.72-0.13,1.62-0.34,1.5-1.33
			c-0.11-0.92-0.99-1.01-1.74-1.1c-1.39-0.17-2.82,0.15-4.18-0.42c-1.19-0.5-2.15-1.19-2.32-2.57c-0.18-1.47,0.75-2.25,1.88-2.85
			c3.07-1.64,6.38-1.6,9.62-0.93c3.02,0.63,5.98,1.62,8.93,2.55c1.39,0.44,1.72,0.17,1.7-1.34c-0.04-5.4,0.03-5.43,5.18-5.43
			c1.63,0,3.24-0.17,4.67-0.87c2.63-1.29,4.61-0.39,6.14,1.68c1.93,2.62,4.35,4.29,7.53,5.05c2.01,0.48,3.94,1.42,5.54,2.71
			c3,2.42,6.26,2.58,9.78,1.77c1.06-0.24,2.4-0.65,2.93,0.77c0.43,1.15,0.46,2.45-0.86,3.23c-0.6,0.36-0.98,0.78-1.08,1.52
			c-0.48,3.6-1.75,5.2-5.01,5.46c-2.77,0.22-5.69,1.05-8.34-0.13C441.13,150.79,438.36,153.01,435.22,152.92z"/>
		<path class="st0" d="M511.88,231.99c-0.01,1.14,0.05,2.39-1.18,2.95c-1.31,0.59-2.36-0.08-3.19-1.11c-0.54-0.66-0.95-1.46-2-0.63
			c-3.22,2.55-6.39,1.34-9.48-0.28c-2.41-1.26-4.71-2.07-7.47-0.72c-1.47,0.72-2.06,1.25-1.48,2.9c0.57,1.64,1.43,3.8-0.43,4.85
			c-1.96,1.11-3.76-0.42-5.2-1.83c-2.89-2.81-3.02-3.96-0.94-7.91c0.43-0.82,0.12-1.48-0.21-2.12c-0.46-0.9-1.48-1.1-2.22-0.78
			c-5.71,2.49-10.14-1.61-15-3.05c-3.42-1.01-6.32-3.6-10.2-3.62c-1.59-0.01-3.06-1.03-3.23-2.67c-0.21-1.97-1.33-2.97-2.78-3.92
			c-0.54-0.35-1.15-0.8-1.42-1.35c-2.12-4.35-6.18-5.23-10.34-5.64c-3.86-0.38-7.29-2.15-10.46-3.85c-1.99-1.06-2.95-4.56-3.75-7.16
			c-0.48-1.58,2.52-3.32,4.18-2.6c4.04,1.76,8.05,3.61,12.09,5.38c0.78,0.34,1.8,1.32,2.45,0.11c0.67-1.25-0.33-2.07-1.37-2.68
			c-0.94-0.54-1.97-0.53-3.01-0.57c-0.53-0.02-1.22,0.13-1.43-0.57c-0.19-0.63,0.37-1.01,0.73-1.43c2.61-3.06,7.6-3.1,10.15,0.19
			c1.69,2.18,4.46,3.5,5.06,6.59c0.21,1.07,1.31,1.21,2.32,0.69c3.17-1.64,5.82-0.63,8.14,1.71c1.42,1.43,3.42,1.89,4.93,2.89
			c2.61,1.72,4.47,4.58,6.59,7.01c0.16,0.19,0.01,0.75-0.13,1.08c-0.33,0.83-1.18,1.65,0.1,2.4c1.11,0.66,2.56,1.15,3.44,0.25
			c2.09-2.13,3.94-1.09,5.79,0.08c2.2,1.38,4.18,2.33,5.85-0.71c0.41-0.74,1.42-1.35,2.18-0.99c2.14,1.03,4.95,1.31,6.29,3.19
			c1.97,2.75,4.55,3.47,7.49,3.75C507.68,222.31,511.92,226.95,511.88,231.99z"/>
		<path class="st0" d="M387.37,105.65c-3.45,0.38-5.64-0.42-6.91-3.11c-1.17-2.48-1.8-2.51-3.69-0.47
			c-0.58,0.62-0.78,2.07-1.99,1.52c-0.96-0.44-1.22-1.67-1.29-2.69c-0.16-2.21,0.89-4,2.35-5.53c1.93-2.02,4.37-3.15,7.02-3.99
			c2.09-0.66,3.69-0.34,4.86,1.56c0.83,1.35,1.65,2.11,3.36,0.97c1.48-0.99,2.89-0.25,3.92,1.07c1.78,2.28,5.34,2.78,7.67,1.03
			c0.29-0.22,0.47-0.59,0.75-0.83c2.58-2.24,6.11-2.93,8.16-6.33c1.23-2.04,5.87-0.9,7.38,1.34c0.83,1.22,1.49,1.1,2.51,0.62
			c2.85-1.32,4.77-3.59,6.39-6.17c0.6-0.96,1.19-1.91,1.76-2.88c0.49-0.83,1.11-1.23,2.1-0.87c1,0.37,1.19,1.17,1.01,2.06
			c-1.09,5.32-3.04,10.1-8.24,12.76c-1.01,0.52-2.01,1.02-2.62,2.05c-1.11,1.84-2.81,2.75-4.89,2.88c-2.25,0.14-3.09,1.37-2.48,3.37
			c0.73,2.41-0.31,3.53-2.44,4.16c-2.39,0.71-4.97,0.68-7.19,2.17c-1.05,0.7-2.25-0.06-3.23-1.01c-2.78-2.71-4.5-2.59-7.02,0.36
			c-2.73,3.19-6.11,4.47-10.29,3.7c-1.66-0.31-1.86-0.96-0.9-2.25C384.65,109.47,385.83,107.8,387.37,105.65z"/>
		<path class="st0" d="M375.22,112.03c0,1.6,0.12,3.2-0.04,4.78c-0.14,1.41-0.67,2.89-1.88,3.67c-2.17,1.4-4.47,2.61-6.4,4.38
			c-0.61,0.56-2.26-0.13-1.94,1.41c0.25,1.19,1.37,1.64,2.52,1.98c2.18,0.64,3.1,3.17,1.4,4.45c-1.63,1.23-2.61,3.17-4.57,3.96
			c-1.26,0.51-1.46,1.08-0.17,1.85c1.31,0.79,2.18,1.93,1.63,3.51c-0.65,1.84-2.36,1.23-3.66,1.2c-4.29-0.11-6.49-2.3-6.25-6.2
			c0.05-0.78-0.17-1.08-0.84-1.05c-0.74,0.04-1.48,0.15-2.21,0.31c-1.18,0.26-2.3,0.27-3-0.88c-0.73-1.18-0.55-2.45,0.38-3.38
			c1.87-1.88,3.43-4.15,6.72-3.95c1.83,0.11,3.66-0.84,4.89-2.43c2-2.6,1.28-4.77-1.8-5.46c-2.28-0.51-4.54-1.11-6.82,0.24
			c-1,0.59-2.26,0.4-3.03-0.68c-1.63-2.28-3.27-4.55-4.76-6.92c-1.14-1.81-0.49-3.15,1.74-3.13c2.98,0.03,5.36-0.79,8.04-2.28
			c2.44-1.36,5.94-0.94,8.98-1.09c2-0.1,3.79-0.16,5.51-1.55c2.29-1.85,5.26-0.46,5.6,2.48c0.18,1.58,0.03,3.19,0.03,4.78
			C375.26,112.03,375.24,112.03,375.22,112.03z"/>
		<path class="st0" d="M280.73,49.42c-1.2,1.19-1.93,2.14-3.31,2.2c-3.55,0.17-6.3,4.03-4.57,7.13c1.18,2.11,2.33,4.41,4.11,6.23
			c1.44,1.47,2.89,1.67,4.45,0.41c1.93-1.56,3.52-0.9,4.87,0.72c0.77,0.93,1.37,2.02,1.91,3.11c1.39,2.78,1.02,5.04-0.92,6.27
			c-2.64,1.67-6.62,1.34-8.19-0.9c-0.92-1.32-2.41-2.01-3.22-3.48c-0.61-1.11-2.02-0.65-3.12-0.52c-2.46,0.29-3.77-0.85-4.51-3.18
			c-1.41-4.44-2.97-8.83-4.57-13.21c-0.77-2.1,2.54-8.52,4.74-8.87c1.48-0.24,2.96-0.48,4.46-0.6c1.69-0.14,3.21-0.26,3.07-2.6
			c-0.04-0.74,0.52-1.48,1.21-1.81c2.07-0.97,3.74-2.1,4.46-4.57c0.41-1.44,3.12-1.24,4.32,0.16c0.36,0.42,0.85,1.02,0.78,1.46
			c-0.69,4.44,2.5,8.15,2.28,12.47c-0.09,1.8-4.35,5.32-6.1,5.06C281.04,54.64,280.11,52.59,280.73,49.42z"/>
		<path class="st0" d="M342.43,78.98c4.6-0.03,6-2.91,7.1-6.18c0.57-1.7,1.7-3.04,3.63-3.06c1.89-0.02,3.19,1.13,3.74,2.89
			c0.37,1.18,1.07,1.73,2.13,2.33c2.9,1.64,3.15,3.44,1.25,6.15c-0.47,0.68-0.78,1.48-1.12,2.24c-0.56,1.24-1.45,1.93-2.87,1.8
			c-1.54-0.14-2.36-1.06-2.69-2.47c-0.28-1.18-0.47-2.38-0.75-3.84c-1.92,1.1-3.48,1.91-0.88,3.85c0.78,0.58,1.35,1.59,1.74,2.51
			c0.8,1.89,1.82,3.1,4.16,3.03c1.92-0.06,2.83,1.3,2.71,3.2c-0.17,2.71-5.54,5.23-7.8,3.7c-4.89-3.32-9.25-1.43-9.86,4.46
			c-0.16,1.57-0.71,1.98-2.04,1.87c-1.95-0.16-3.13,0.47-3.63,2.58c-0.62,2.58-2.85,3.57-5.18,4.25c-0.54,0.16-1.17,0.35-1.5-0.3
			c-0.88-1.73-0.63-3.68-1.03-5.51c-0.54-2.49,1.14-3.09,2.99-3.94c1.76-0.8,3.24-2.22,4.81-3.41c1.12-0.85,0.88-1.87,0.38-3.02
			c-2.28-5.25-1.81-6.34,3.41-8.43c0.52-0.21,1.05-0.42,1.51-0.73C344.27,81.88,345.94,80.75,342.43,78.98z"/>
		<path class="st0" d="M99.22,261.57c0.54,0.37,1.25,0.63,1.58,1.14c1.59,2.48,2.91,2.5,5.38,0.64c1.69-1.27,3.65-2.03,5.09-3.88
			c1.08-1.4,2.55-0.45,3.38,0.97c0.91,1.57,1.67,3.34,4.06,1.97c0.79-0.46,1.15,0.18,1.37,0.89c1.35,4.23-2.22,8.47-5.69,8.57
			c-1.13,0.03-2.26,0.03-3.37,0.17c-1.98,0.25-3.76,0.51-3.95,3.3c-0.13,1.94-2.67,3.08-4.14,1.85c-2.73-2.28-5.93-2.18-9.03-2.44
			c-3.51-0.3-6.11-2.62-9.26-3.68c-0.99-0.33-1.46-1.46-1.2-2.61c0.29-1.29,1.32-1.44,2.41-1.43c1.22,0.01,2.44-0.01,3.66,0
			c1.05,0.01,1.84-0.37,2.13-1.44c0.62-2.25,2.06-3.11,4.41-3.02c1.03,0.04,2.1-0.66,3.15-1.02
			C99.19,261.55,99.22,261.57,99.22,261.57z"/>
		<path class="st0" d="M296.08,56.01c1.61,0.64,2.35-1.5,3.96-1.24c0.44,0.07,0.49-1.12,0.25-1.74c-0.25-0.64-0.26-1.43-1.39-1.44
			c-1.97-0.03-2.35-1.24-1.66-2.87c0.77-1.8,0.25-2.9-1.43-3.93c-2.01-1.23-2.87-3.21-2.1-5.6c0.51-1.58,1.54-3.06,3.1-3.4
			c1.5-0.32,2.04,1.46,2.69,2.5c1.06,1.71,2.24,3.18,3.99,4.24c2.08,1.27,2.9,2.98,1.83,5.48c-0.95,2.24-1.27,4.35,0.5,6.74
			c1.45,1.95,0.87,4.78,0.16,7.11c-0.68,2.23-0.68,4.44-0.6,6.69c0.06,1.53,0.29,2.97,2.17,3.5c1.16,0.33,1.86,1.33,1.9,2.56
			c0.03,1.21-0.73,1.87-1.9,2.05c-0.62,0.1-0.92,0.55-1.27,1.01c-1.38,1.83-2.72,1.35-3.84-0.23c-0.78-1.1-1.69-1.95-2.85-2.66
			c-2.67-1.63-3.15-3.63-0.89-5.69c2.26-2.07,0.73-3.55-0.23-5.08c-1.04-1.65-2.49-1.22-3.88-0.22c-1,0.72-2.13,0.88-3.15,0.11
			c-1.09-0.83-0.81-1.98-0.5-3.1C292.02,56.95,293.02,56,296.08,56.01z"/>
		<path class="st0" d="M344.57,49.68c1.45,0.35,2.77-0.32,4.13-1.01c3.16-1.6,6.27-2.62,9.14,0.73c0.96,1.12,2.59,0.88,4,0.96
			c3.66,0.21,4.82,1.82,3.9,5.32c-0.63,2.41-2.86,3.05-4.82,1.38c-2.48-2.11-3.89-1.74-4.71,1.4c-0.37,1.42-0.97,2.62-2,3.64
			c-0.53,0.53-1.16,1.06-1.09,1.88c0.09,1.03,1,2.23-0.7,2.79c-1.58,0.52-3.17,1.44-4.79,0.14c-1.1-0.88-2.35-1.08-3.7-1.07
			c-1.92,0.02-2.66-1.3-2.11-2.8c0.68-1.87,1.36-3.94,3.29-5.03c0.86-0.48,1.66-0.89,1.6-2.05c-0.06-1.4-1.15-1.23-2.04-1.38
			c-1.23-0.22-1.96-1.01-2.41-2.13C341.38,50.23,342,49.44,344.57,49.68z"/>
		<path class="st0" d="M404.08,111.45c2.05,0.29,4.46,0.65,6.87,0.98c1.51,0.2,2.93-0.08,3.54-1.63c1-2.52,3.08-3.13,5.4-3.29
			c2.99-0.2,6-0.3,9-0.39c1.73-0.05,1.33,0.87,0.72,1.77c-2.21,3.28-5.09,5.77-8.78,7.22c-1.55,0.61-2.69,1.35-3.38,3.04
			c-0.91,2.21-3.66,2.97-5.41,1.36c-1.98-1.83-3.63-1.64-5.79-0.52c-3.26,1.69-6.06,1.08-8.69-1.53c-2.07-2.06-1.74-3.36,0.81-4.83
			C400.09,112.65,401.58,111.32,404.08,111.45z"/>
		<path class="st0" d="M385.57,76.03c-2.72,0.01-5.44,0.09-8.16,0.01c-3.69-0.11-6.48,0.98-7.95,4.73
			c-0.83,2.11-2.95,1.89-4.65,1.39c-1.97-0.58-0.8-2.13-0.58-3.29c0.29-1.53,1.11-2.72,2.38-3.68c1.71-1.3,2.52-2.74,1.25-5.04
			c-1.5-2.72-0.57-3.93,2.57-4c3.35-0.08,6.5,0.75,9.52,2.12c0.94,0.43,1.85,0.91,2.81,1.28c4.22,1.65,4.22,1.63,3.25,6.21
			C385.87,75.85,385.72,75.94,385.57,76.03z"/>
		<path class="st0" d="M374.98,234.52c-1.89-1.12-3.96-0.35-6.31,0.46c-3.67,1.27-7.87-1.19-9.54-4.73
			c-0.83-1.76,0.32-2.14,1.47-2.61c0.91-0.37,1.9-0.56,0.88-1.9c-0.89-1.16-1.13-2.79,0.27-3.41c1.59-0.72,3.83-1.56,5.17,0.24
			c1.35,1.81,4.65,2.49,3.65,5.93c-0.12,0.4,1.55,1.61,3.01,1.46c2.18-0.22,4.21-0.9,6.25-1.57c1.09-0.36,2.27-0.63,3.16,0.34
			c1,1.09,0.77,2.46,0.41,3.74c-0.36,1.3-1.43,1.58-2.65,1.63C378.99,234.18,377.22,234.35,374.98,234.52z"/>
		<path class="st0" d="M397.07,65.54c2.19,0.44,4.6,0.8,6.92,1.45c1.44,0.41,1.81,1.77,1.75,3.2c-0.06,1.5-1,2.33-2.33,2.32
			c-2.51-0.02-2.16,0.98-1.29,2.61c0.51,0.96,0.65,2.14,0.84,3.24c0.21,1.17,0.58,2.26,1.73,2.71c3.04,1.19,0.96,2.07-0.2,2.81
			c-1.46,0.93-3.06,0.84-4.52-0.09c-2.13-1.35-2.67-3.51-2.77-5.83c-0.03-0.64,0.22-1.29,0.29-1.94c0.17-1.68,0.02-2.73-2.24-2.01
			c-2.41,0.76-4.95-1.13-5.39-3.61c-0.12-0.7-0.07-1.47,0.49-1.8C392.42,67.38,394.28,65.69,397.07,65.54z"/>
		<path class="st0" d="M489.94,200.23c-0.95,0.02-1.88-0.07-2.75-0.5c-2.81-1.42-5.4-3.35-8.69-3.61c-0.17-0.01-0.37-0.13-0.49-0.26
			c-2.53-2.67-3.47-6.21-5-9.41c-0.4-0.83,0.44-1.96,1.5-2.44c0.98-0.44,1.84-0.16,2.61,0.48c1.52,1.25,3.08,2.45,4.52,3.79
			c1.52,1.42,3.05,2.31,5.26,2.78c2.9,0.63,4.9,3.33,6.57,5.73C494.52,198.28,492.39,200.22,489.94,200.23z"/>
		<path class="st0" d="M278.26,131.21c0.05,3.06-1.7,4.25-4.53,3.03c-1.11-0.48-2.16-1.12-3.42-1.19c-0.81-0.05-1.66-0.5-1.71-1.23
			c-0.23-3.59-3.18-5.4-5.02-7.92c-0.72-0.98-1.39-2.18-0.32-2.97c1.58-1.16,2.21-4.09,5.1-3.05c3.3,1.19,5.24,3.91,6.83,6.71
			c0.71,1.24,1.02,2.71,2.16,3.76C278.16,129.11,278.3,130.15,278.26,131.21z"/>
		<path class="st0" d="M376.13,132.27c-0.09-2.82,0.87-3.54,2.85-4.18c4.23-1.36,8.1,0.88,12.17,0.6c0.9-0.06,1.38,0.55,1.52,1.36
			c0.18,1.05-0.31,1.87-1.22,2.31c-0.92,0.44-1.98,0.62-2.88,1.08c-1.34,0.69-2.56,1.59-3.03,3.15c-0.77,2.56-3.88,4.89-6.49,4.87
			c-0.85-0.01-1.68-0.32-1.63-1.17C377.63,137.23,376.56,134.39,376.13,132.27z"/>
		<path class="st0" d="M99.19,261.55c-2.14-1.37-3.57-3.15-2.68-5.81c0.64-1.93,4.18-3.26,6.85-2.65c2.01,0.46,3.84,1.45,5.54,2.61
			c1.04,0.71,1.74,1.77,1.37,3.12c-0.38,1.4-1.52,1.83-2.83,1.78c-2.79-0.11-5.32,1.94-8.21,0.97
			C99.22,261.57,99.19,261.55,99.19,261.55z"/>
		<path class="st0" d="M327.97,56.12c2.17,2.03,2.78,4.4,3.41,6.7c0.32,1.15,0.7,1.93,1.84,2.55c1.97,1.06,3.41,2.96,2.23,5.09
			c-1.11,2.01-3.49,2.01-5.57,1.31c-3.43-1.15-4.67-3.47-3.92-7.01c0.5-2.38,0.99-4.77,1.5-7.15
			C327.55,57.25,327.7,56.91,327.97,56.12z"/>
		<path class="st0" d="M243.2,34c3.86-1.69,5.44,2.29,7.94,4.39c0.82,0.69,0.39,1.74,0.05,2.63c-0.37,0.97-1.2,1.21-2.06,1.07
			c-1.19-0.19-2.35-0.58-3.53-0.89c-1.16-0.3-2.25-0.64-3.55-0.37c-2.98,0.62-4.58-0.53-4.78-3.11c-0.23-3.06,0.45-3.71,3.92-3.72
			C241.67,34,242.13,34,243.2,34z"/>
		<path class="st0" d="M119.01,261.42c-2.17-0.05-3.46-2.22-2.62-4.48c0.75-2,1.8-4-1.69-4.47c-1.15-0.16-1.51-1.28-1.5-2.41
			c0.01-0.94,0.41-1.64,1.32-1.95c1.21-0.41,2.59-0.14,2.94,0.93c0.75,2.25,2.3,2.24,4.15,2.24c2.27,0,2.92,1.41,2.38,3.42
			c-0.26,0.98-0.83,1.84-0.9,2.93C122.87,260.87,122.14,261.5,119.01,261.42z"/>
		<path class="st0" d="M368.54,199.22c0.02,2.42-2.95,4.88-5.81,4.83c-1.86-0.04-4.14-3.37-4.11-6.03c0.02-2.69,1.99-4.81,4.46-4.8
			C366.06,193.23,368.51,195.92,368.54,199.22z"/>
		<path class="st0" d="M317.75,52.3c-0.02,2.41-2.22,5.75-4.39,6.4c-1.64,0.5-2.67-0.63-3.22-1.92c-0.96-2.25-1.3-4.77-1.15-7.12
			c0.14-2.24,2.47-2.6,4.35-2.58C315.91,47.1,317.77,49.44,317.75,52.3z"/>
		<path class="st0" d="M386.02,75.75c1.16,0.37,2.6,0.63,2.99,1.87c0.93,2.98,2.88,2.5,5.02,1.8c0.7-0.23,1.59-0.66,2.12-0.04
			c0.58,0.68-0.2,1.38-0.54,1.99c-2.1,3.75-7.61,5.99-11.68,4.84c-1.07-0.3-1.09-0.85-0.67-1.65c1-1.94,2.4-3.73,1.05-6.19
			c-0.39-0.72,0.57-1.69,1.26-2.35C385.72,75.94,385.87,75.85,386.02,75.75z"/>
		<path class="st0" d="M314.64,89.85c0.12-4.76,3.04-8.15,6.77-7.92c1.2,0.07,2.22,0.42,2.76,1.58c0.51,1.12-0.42,1.86-0.74,2.78
			c-1.12,3.23-5.24,4.45-5.39,8.37c-0.04,1.08-1.16,0.55-1.73,0.04C314.85,93.42,314.55,91.7,314.64,89.85z"/>
		<path class="st0" d="M375.42,216.26c1.54,0.18,3.19,0.06,4.6-1.43c0.94-0.99,2.23-0.94,3.28,0.04c1.08,1,1.38,2.25,0.63,3.55
			c-0.56,0.96-1.24,1.91-2.44,2.19c-2.36,0.55-4.68,1.19-6.97,2.01c-1.97,0.7-3.72-1.07-3.98-3.6c-0.22-2.19,1.07-2.77,2.92-2.77
			C374.02,216.27,374.59,216.26,375.42,216.26z"/>
		<path class="st0" d="M277.71,30.83c0.33,2.4-0.77,4.62-2.53,6.57c-0.83,0.91-1.58,1.15-1.78-0.48c-0.47-3.82-1.37-7.45-3.29-10.89
			c-1.32-2.38-0.14-3.65,2.65-3.32C275.77,23.07,277.69,26.1,277.71,30.83z"/>
		<path class="st0" d="M321.6,65.8c-0.21,1.32-0.39,2.82-1.34,4.07c-1.33,1.77-3.06,2.6-5.14,1.55c-2.06-1.03-2.6-2.83-1.84-5
			c0.25-0.71,0.58-1.39,0.74-2.12c0.46-2.11,1.34-3.8,3.85-3.61C319.97,60.84,321.58,63.09,321.6,65.8z"/>
		<path class="st0" d="M91.18,246.03c2.41,0.2,4.02,0.03,5.65-0.64c1.67-0.69,3.47-0.53,4.47,1.17c0.97,1.63-0.05,2.79-1.44,3.71
			c-1.07,0.7-1.41,2.17-2.91,2.5c-1.29,0.28-2.4,0.6-3.02-0.96c-0.38-0.96-1.17-1.41-2.1-1.7c-1.01-0.32-1.89-0.82-2.46-1.75
			c-0.38-0.63-1.03-1.27-0.62-2.03c0.44-0.84,1.3-0.46,2.02-0.36C91.14,246.03,91.52,246.08,91.18,246.03z"/>
		<path class="st0" d="M469.29,230.34c1.69,0.25,3.66-0.68,4.22,2.09c0.79,3.92,0.05,4.93-4,4.56c-1.2-0.11-2.44-0.11-3.59-0.42
			c-1.65-0.45-2.86-1.57-2.75-3.4c0.11-1.83,1.62-2.37,3.15-2.61C467.32,230.39,468.36,230.4,469.29,230.34z"/>
		<path class="st0" d="M255.5,38.31c-0.09-1.99,0.8-2.95,2.44-3.01c1.72-0.06,3.39,2.25,3.38,4.47c0,1.93-0.71,3.59-2.61,4.16
			C257.36,44.35,255.47,40.73,255.5,38.31z"/>
		<path class="st0" d="M257.33,125.25c-0.88-0.11-1.57-0.07-2.16-0.3c-1.14-0.43-2.4-0.98-2.45-2.39c-0.05-1.47,1.21-1.92,2.39-2.35
			c1.8-0.66,3.51-0.03,5.24,0.26c0.8,0.14,1.25,0.81,1.35,1.61c0.12,0.94-0.33,1.73-1.12,2.09
			C259.49,124.67,258.3,124.94,257.33,125.25z"/>
		<path class="st0" d="M386.31,226.76c-1.59-0.03-2.8-0.48-3.79-1.4c-0.71-0.66-1.16-1.53-0.95-2.5c0.24-1.09,1.26-0.88,2.07-1.01
			c0.74-0.11,1.46-0.33,2.2-0.4c2.18-0.19,4.23,1.23,4.03,2.89C389.59,226.56,387.81,226.68,386.31,226.76z"/>
	</g>
</g>
</svg>
